<?xml version="1.0" standalone="no"?>
<!DOCTYPE svg PUBLIC "-//W3C//DTD SVG 20010904//EN"
 "http://www.w3.org/TR/2001/REC-SVG-20010904/DTD/svg10.dtd">
<svg version="1.0" xmlns="http://www.w3.org/2000/svg"
 width="800.000000pt" height="800.000000pt" viewBox="0 0 800.000000 800.000000"
 preserveAspectRatio="xMidYMid meet">
<metadata>
Created by potrace 1.14, written by Peter Selinger 2001-2017
</metadata>
<g transform="translate(0.000000,800.000000) scale(0.100000,-0.100000)"
fill="#000000" stroke="none">
<path d="M4270 7993 c37 -7 43 -18 27 -49 -9 -18 -12 -35 -6 -49 4 -11 11 -50
14 -87 4 -37 11 -70 16 -73 5 -4 9 -16 10 -28 1 -14 5 -9 11 16 6 20 14 37 19
37 5 0 9 11 9 24 0 14 5 28 10 31 6 3 10 19 10 36 0 16 5 29 11 29 7 0 9 18 6
49 -3 28 0 54 6 60 8 8 -14 11 -78 10 -50 -1 -79 -4 -65 -6z"/>
<path d="M5853 7943 c3 -32 10 -94 16 -138 8 -56 8 -123 1 -225 -5 -80 -12
-347 -15 -595 -5 -426 -23 -845 -45 -1036 -5 -48 -10 -113 -10 -145 0 -33 -5
-78 -10 -102 -6 -23 -15 -84 -20 -135 -5 -50 -19 -117 -31 -147 -18 -47 -20
-69 -15 -145 8 -133 15 -182 31 -222 8 -19 20 -87 27 -150 11 -110 9 -222 -18
-698 -2 -44 -9 -183 -14 -310 -6 -126 -15 -255 -21 -285 -8 -38 -9 -106 -2
-225 5 -93 9 -171 8 -172 0 -1 -37 14 -80 33 -44 20 -115 48 -158 64 -43 15
-88 37 -100 48 -12 12 -56 37 -98 57 -130 61 -321 247 -390 379 -39 74 -76
126 -91 126 -7 0 -9 -19 -4 -57 4 -32 1 -139 -5 -238 -12 -186 -34 -304 -83
-440 -16 -46 -29 -114 -37 -195 -12 -131 -35 -234 -49 -225 -4 3 -6 15 -3 28
11 46 -14 1 -32 -56 -17 -58 -14 -92 4 -46 10 24 10 23 10 -5 1 -35 -40 -250
-74 -386 -13 -52 -26 -115 -29 -139 -7 -45 -18 -86 -61 -216 -13 -38 -29 -90
-35 -115 -7 -25 -32 -85 -56 -135 -24 -49 -51 -121 -60 -160 -28 -124 -105
-338 -149 -415 -32 -56 -46 -94 -55 -150 -18 -113 -38 -185 -80 -290 -21 -52
-48 -138 -60 -190 -38 -160 -89 -346 -115 -415 -14 -36 -25 -68 -25 -70 0 -3
941 -5 2090 -5 l2090 0 0 279 0 280 -36 113 c-19 62 -44 138 -55 168 -47 125
-108 309 -124 370 -10 36 -26 89 -36 118 -22 62 -23 75 -6 69 6 -2 11 -10 9
-17 -1 -6 7 -14 18 -17 11 -3 20 -9 20 -13 0 -5 15 -12 33 -15 17 -4 37 -11
42 -16 6 -4 29 -8 51 -7 23 0 51 -5 62 -11 l22 -12 0 165 c0 143 -2 165 -15
160 -8 -4 -15 -2 -15 3 0 8 -33 10 -50 3 -3 -1 -9 -2 -14 -1 -4 1 -14 -4 -22
-10 -8 -6 -27 -9 -44 -5 -17 3 -30 2 -30 -3 0 -15 -33 -22 -42 -9 -6 10 -8 8
-8 -5 0 -11 -10 -20 -28 -23 -28 -6 -33 -19 -19 -54 13 -30 25 -100 17 -100
-7 0 -37 88 -84 250 -63 214 -78 259 -151 455 -82 221 -112 273 -215 368 -64
60 -160 113 -186 103 -36 -14 -104 17 -204 91 -25 18 -112 65 -195 104 -82 38
-156 76 -165 84 -17 15 -445 207 -557 249 -77 29 -90 40 -75 59 5 7 15 152 21
322 7 171 14 335 16 365 2 30 7 172 10 315 3 143 8 303 10 355 2 52 7 226 10
385 3 160 10 477 15 705 5 228 12 537 15 685 3 149 8 313 10 365 3 52 7 187
11 300 3 113 11 383 18 600 7 217 10 403 8 413 -4 15 -17 17 -99 17 l-95 0 5
-57z"/>
<path d="M7253 7988 c10 -7 20 -29 23 -48 3 -19 8 -50 11 -67 3 -20 11 -33 20
-33 9 0 12 6 8 19 -3 11 0 21 9 24 8 3 19 22 26 41 6 20 15 34 20 31 4 -3 7 6
6 20 -1 24 -3 25 -70 25 -58 0 -67 -2 -53 -12z"/>
<path d="M4325 7670 c-3 -5 -1 -18 4 -27 9 -16 10 -14 11 10 0 28 -5 34 -15
17z"/>
<path d="M3832 7621 c-8 -4 -12 -12 -10 -17 1 -5 -115 -9 -260 -9 -189 -1
-265 -4 -271 -13 -5 -8 -14 -7 -36 4 -26 14 -42 14 -110 5 -98 -14 -155 -29
-155 -41 0 -6 15 -10 34 -10 39 0 41 -2 50 -46 6 -29 5 -31 -32 -42 -22 -7
-51 -12 -66 -12 -14 0 -26 -4 -26 -10 0 -5 -7 -10 -15 -10 -19 0 -19 10 1 38
13 19 13 26 3 38 -11 14 -15 12 -29 -15 -19 -38 -21 -97 -2 -94 6 2 12 -1 12
-6 0 -5 6 -16 13 -23 16 -16 47 -81 47 -98 0 -8 -8 -10 -21 -7 -15 4 -19 2
-15 -9 8 -21 -12 -58 -37 -70 -12 -5 -21 -16 -19 -23 1 -7 -2 -10 -7 -7 -13 9
-111 -90 -111 -112 0 -12 -69 -82 -81 -82 -5 0 -32 -15 -59 -33 -89 -60 -169
-171 -110 -152 13 4 22 1 26 -9 4 -12 11 -13 31 -5 29 11 45 3 23 -12 -12 -7
-13 -11 -2 -17 11 -7 9 -21 -8 -73 -32 -94 -40 -364 -15 -475 10 -44 22 -86
26 -95 4 -8 9 -65 10 -125 1 -67 6 -117 14 -129 17 -28 30 -145 16 -145 -18 0
-12 -27 14 -66 30 -45 43 -86 27 -92 -25 -8 -61 -44 -59 -60 1 -20 -31 -72
-45 -72 -6 0 -5 -6 2 -15 7 -8 9 -15 4 -15 -5 0 -1 -6 8 -13 11 -9 18 -31 20
-67 2 -35 8 -55 17 -58 11 -4 13 4 8 41 -6 43 -4 49 28 83 19 20 35 38 35 41
0 2 15 25 33 51 26 37 37 67 50 142 21 117 102 368 128 396 10 11 19 30 19 42
0 12 9 39 20 60 27 51 40 136 30 189 -4 23 -6 62 -5 85 2 24 -1 46 -6 49 -11
6 10 104 34 162 15 34 54 80 149 177 25 26 33 28 90 25 35 -1 88 -6 118 -10
40 -5 86 -2 165 13 99 19 166 28 262 37 18 2 37 6 42 9 5 3 11 0 14 -6 3 -9
14 -5 33 13 64 58 118 79 219 83 28 1 57 5 65 9 18 9 100 5 115 -5 6 -4 17 -3
25 2 7 4 19 6 27 3 7 -3 20 0 28 7 9 7 25 10 41 6 18 -5 30 -3 35 6 6 10 15 9
44 -5 20 -10 34 -13 31 -8 -12 19 53 31 100 19 24 -7 44 -16 44 -20 0 -4 6 -8
13 -8 7 0 28 -17 46 -37 19 -21 60 -66 92 -100 60 -65 72 -103 39 -123 -12 -8
-10 -14 16 -38 19 -17 34 -43 38 -65 4 -20 10 -37 14 -37 10 0 32 -50 32 -72
0 -10 4 -18 9 -18 5 0 13 -10 16 -22 30 -107 95 -217 95 -163 0 8 7 15 15 15
8 0 15 -9 15 -21 0 -35 19 -61 41 -54 15 5 19 2 19 -18 0 -36 23 -84 38 -80 7
3 12 -5 12 -19 0 -13 5 -29 12 -36 13 -13 32 -17 25 -4 -3 4 -1 41 4 82 20
168 27 227 34 260 5 26 4 31 -4 20 -8 -12 -11 -6 -10 25 1 34 2 36 8 15 6 -19
10 -5 16 55 10 88 10 116 -1 158 -4 17 -2 27 5 27 6 0 11 -5 11 -11 0 -14 26
-39 40 -39 22 0 -10 54 -72 122 -15 16 -27 32 -26 36 7 32 -34 93 -47 72 -8
-14 -30 24 -40 70 -4 18 -15 40 -25 50 -10 10 -19 21 -21 26 -5 12 -89 71
-152 107 -47 28 -71 29 -61 2 3 -7 1 -22 -5 -32 -10 -17 -10 -17 -11 0 0 41
-28 72 -74 86 -51 15 -70 9 -41 -13 17 -12 17 -13 -4 -19 -16 -4 -25 1 -36 23
-8 15 -21 30 -30 33 -8 4 -15 13 -15 22 0 8 -5 15 -11 15 -5 0 -7 5 -4 10 3 6
-7 21 -23 35 -16 14 -29 31 -28 39 2 26 -165 197 -218 222 -58 28 -76 30 -76
8 0 -8 -4 -12 -10 -9 -5 3 -10 1 -10 -4 0 -6 7 -11 15 -11 9 0 29 -13 45 -30
16 -16 33 -30 38 -30 10 0 42 -33 42 -43 0 -14 -19 -6 -48 18 -16 13 -32 22
-36 18 -3 -3 -6 -1 -6 6 0 8 -19 31 -42 52 -24 21 -37 38 -30 39 19 0 14 24
-8 37 -12 8 -21 9 -25 3 -3 -6 -14 -10 -23 -9 -14 0 -13 2 3 9 16 7 12 9 -20
11 -22 1 -47 3 -55 4 -8 0 -28 10 -44 20 -18 12 -31 15 -33 9 -3 -8 -25 -7
-76 2 -84 15 -147 17 -165 5z m193 -81 c22 -10 22 -10 -17 -15 -19 -2 -28 1
-28 11 0 16 15 17 45 4z m98 -27 c-7 -2 -21 -2 -30 0 -10 3 -4 5 12 5 17 0 24
-2 18 -5z m105 -22 c8 -4 13 -12 12 -17 -3 -17 35 -64 50 -61 14 3 66 -29 98
-60 7 -7 23 -14 35 -14 17 -1 18 -2 5 -6 -20 -5 -24 -39 -8 -63 8 -12 10 -12
11 5 0 13 2 15 6 6 3 -8 21 -27 39 -44 34 -29 44 -49 22 -44 -7 1 -15 -11 -19
-28 l-7 -30 -1 33 c-1 37 -17 72 -32 72 -6 0 -6 -7 1 -19 13 -25 13 -51 0 -51
-5 0 -10 9 -10 20 0 11 -5 20 -11 20 -5 0 -7 -5 -3 -12 4 -7 3 -8 -4 -4 -7 4
-12 14 -12 23 0 9 -27 42 -61 75 -33 32 -56 58 -51 58 6 0 17 -7 26 -15 8 -8
21 -15 28 -15 18 1 -28 37 -77 60 -79 38 -184 50 -259 29 -39 -11 -51 -18 -86
-53 -15 -15 -25 -17 -40 -10 -19 8 -17 11 22 37 24 15 81 39 127 53 l84 26 61
-20 c64 -20 80 -20 54 1 -18 13 -34 57 -21 57 4 0 14 -4 21 -9z m70 -21 c13
-11 22 -25 20 -31 -2 -6 -16 2 -31 17 -23 22 -27 24 -27 9 0 -10 -3 -16 -6
-12 -8 8 3 37 13 37 4 -1 19 -9 31 -20z m180 -78 c2 -7 -3 -12 -12 -12 -9 0
-16 7 -16 16 0 17 22 14 28 -4z m-1420 -47 c0 -32 -4 -45 -14 -45 -8 0 -14 -7
-14 -15 0 -26 -39 1 -46 32 -6 21 -1 31 20 50 41 35 53 30 54 -22z m-78 20 c0
-8 -4 -15 -10 -15 -5 0 -10 7 -10 15 0 8 5 15 10 15 6 0 10 -7 10 -15z m980
-19 c0 -2 -9 -6 -20 -9 -11 -3 -18 -1 -14 4 5 9 34 13 34 5z m-80 -15 c0 -5
-9 -13 -20 -16 -11 -3 -20 -11 -20 -17 0 -6 -3 -8 -7 -5 -3 4 2 16 12 27 19
21 35 26 35 11z m709 -133 c50 -48 91 -93 90 -100 0 -10 -2 -10 -6 0 -7 19
-26 14 -19 -5 7 -19 -57 47 -81 84 -9 13 -19 20 -24 17 -5 -3 -9 2 -9 10 0 8
-6 21 -13 28 -25 25 -47 63 -46 78 0 10 3 9 9 -5 4 -11 49 -59 99 -107z m-770
90 c-42 -26 -69 -37 -69 -30 0 13 21 29 45 34 19 4 34 1 24 -4z m336 -48 c3
-5 2 -10 -4 -10 -5 0 -13 5 -16 10 -3 6 -2 10 4 10 5 0 13 -4 16 -10z m-56
-14 c-2 -2 -17 -6 -34 -10 -22 -5 -26 -4 -15 4 14 9 59 15 49 6z m442 -63 c13
-16 12 -17 -3 -4 -10 7 -18 15 -18 17 0 8 8 3 21 -13z m242 -70 c-5 -12 -3
-14 8 -8 11 6 12 5 2 -6 -15 -15 -40 2 -29 20 11 17 26 13 19 -6z m194 -50
c-8 -7 -37 9 -31 19 3 5 12 4 20 -3 8 -6 13 -14 11 -16z m-2317 -177 c0 -7 -7
-19 -15 -26 -8 -7 -15 -18 -15 -25 0 -13 -21 -25 -46 -25 -21 0 -17 11 17 53
31 37 59 49 59 23z m670 -76 c8 -5 11 -10 5 -10 -5 0 -17 5 -25 10 -8 5 -10
10 -5 10 6 0 17 -5 25 -10z m1545 -150 c3 -5 2 -10 -4 -10 -5 0 -13 5 -16 10
-3 6 -2 10 4 10 5 0 13 -4 16 -10z m374 -162 c1 -16 -3 -28 -7 -28 -5 0 -9 21
-10 48 -1 34 2 42 8 27 5 -11 9 -32 9 -47z"/>
<path d="M790 7329 c0 -5 5 -7 10 -4 6 3 10 8 10 11 0 2 -4 4 -10 4 -5 0 -10
-5 -10 -11z"/>
<path d="M70 7230 c-14 -4 -20 -8 -13 -9 7 -1 10 -8 7 -16 -4 -8 -2 -15 4 -15
6 0 17 -3 26 -6 13 -5 16 1 16 25 0 33 -1 33 -40 21z"/>
<path d="M4720 7230 c0 -5 5 -10 11 -10 5 0 7 5 4 10 -3 6 -8 10 -11 10 -2 0
-4 -4 -4 -10z"/>
<path d="M4835 7190 c-3 -5 -1 -10 4 -10 6 0 11 5 11 10 0 6 -2 10 -4 10 -3 0
-8 -4 -11 -10z"/>
<path d="M8 7163 c7 -3 16 -2 19 1 4 3 -2 6 -13 5 -11 0 -14 -3 -6 -6z"/>
<path d="M460 7084 c0 -17 17 -36 24 -26 3 5 -1 15 -9 22 -8 7 -15 9 -15 4z"/>
<path d="M5180 6891 c0 -6 4 -13 10 -16 6 -3 7 1 4 9 -7 18 -14 21 -14 7z"/>
<path d="M1297 6653 c-4 -3 -7 -11 -7 -17 0 -6 5 -5 12 2 6 6 9 14 7 17 -3 3
-9 2 -12 -2z"/>
<path d="M1350 6501 c0 -5 5 -13 10 -16 6 -3 10 -2 10 4 0 5 -4 13 -10 16 -5
3 -10 2 -10 -4z"/>
<path d="M521 6214 c0 -11 3 -14 6 -6 3 7 2 16 -1 19 -3 4 -6 -2 -5 -13z"/>
<path d="M5030 6170 c0 -11 9 -39 21 -61 l20 -41 -21 7 c-18 6 -20 3 -16 -17
3 -13 8 -74 11 -137 3 -62 7 -117 10 -122 6 -9 25 -156 29 -219 5 -68 35 -98
37 -37 l1 32 8 -30 c13 -50 11 -95 -6 -130 -8 -19 -14 -44 -12 -57 4 -20 6
-18 22 17 46 100 70 174 73 225 2 30 9 65 15 77 8 16 8 34 -1 65 -6 24 -10 50
-9 58 3 30 -2 83 -7 78 -3 -3 -8 -16 -10 -28 -7 -35 -15 -37 -15 -2 0 17 -4
34 -10 37 -5 3 -10 16 -10 28 0 18 -2 19 -10 7 -8 -13 -10 -13 -10 1 0 9 -11
28 -24 42 -15 16 -26 43 -30 76 -4 27 -10 53 -15 55 -5 3 -11 23 -15 45 -7 43
-26 66 -26 31z m41 -163 c-16 -16 -20 -5 -8 23 9 22 11 23 14 6 3 -10 0 -23
-6 -29z m19 -69 c0 -9 -4 -20 -10 -23 -6 -4 -10 9 -10 32 0 28 3 34 10 23 5
-8 10 -23 10 -32z m57 -180 c-3 -8 -6 -5 -6 6 -1 11 2 17 5 13 3 -3 4 -12 1
-19z m3 -103 c0 -28 -5 -38 -22 -44 -13 -5 -24 -8 -26 -6 -3 3 40 85 45 85 2
0 3 -16 3 -35z m44 -80 c-4 -8 -8 -15 -10 -15 -2 0 -4 7 -4 15 0 8 4 15 10 15
5 0 7 -7 4 -15z"/>
<path d="M3409 6025 c-4 -3 -40 -9 -80 -12 -53 -4 -86 -12 -116 -30 -28 -16
-43 -21 -43 -12 0 8 -7 5 -19 -7 -12 -13 -15 -21 -7 -26 7 -5 4 -8 -8 -8 -11
0 -16 -5 -13 -14 3 -7 -9 -29 -26 -47 l-30 -34 29 -6 c16 -4 23 -7 17 -8 -7 0
-13 -7 -13 -15 0 -12 5 -12 30 -3 31 12 40 31 18 40 -7 3 4 6 25 6 34 1 106
39 81 42 -5 1 14 5 41 9 87 14 154 11 212 -10 31 -11 59 -18 61 -15 2 2 16 -7
30 -21 15 -13 31 -24 37 -24 6 0 23 -15 39 -32 24 -27 26 -34 12 -36 -9 -2
-31 1 -49 7 -92 29 -283 21 -373 -16 -42 -17 -100 -85 -89 -103 3 -5 -1 -10
-9 -10 -9 0 -16 -4 -16 -9 0 -4 23 -4 52 1 29 5 75 7 102 4 28 -2 79 -8 113
-12 l62 -6 20 33 c12 19 21 42 21 52 0 34 76 14 121 -31 19 -19 24 -31 17 -39
-10 -13 -3 -15 75 -28 32 -5 37 -3 37 14 0 26 34 17 55 -16 16 -24 17 -24 36
-7 43 39 12 133 -64 193 -21 16 -37 33 -35 37 2 4 -15 16 -37 26 -30 13 -35
18 -17 18 17 0 22 6 22 25 0 35 -36 72 -78 80 -21 4 -45 14 -56 23 -11 11 -38
18 -75 19 -31 1 -67 5 -81 8 -14 4 -28 4 -31 0z"/>
<path d="M4501 5921 c-24 -4 -48 -15 -53 -24 -11 -21 -29 -22 -22 -2 10 25
-19 16 -43 -14 -28 -35 -16 -64 18 -43 11 8 18 9 15 3 -4 -5 1 -14 10 -19 14
-8 4 -16 -52 -41 -143 -66 -165 -86 -161 -141 2 -33 4 -35 37 -36 53 -1 55 -2
35 -24 -20 -22 -16 -25 45 -34 19 -3 73 -12 120 -20 56 -9 91 -11 103 -4 21
11 37 48 37 84 0 29 -1 29 47 7 47 -22 93 -62 93 -80 0 -8 4 -12 8 -9 5 3 20
-1 35 -9 25 -13 27 -12 27 6 0 11 -21 40 -46 64 -25 25 -43 45 -39 45 18 0 64
-36 74 -57 6 -12 15 -23 21 -23 20 0 -19 58 -52 78 -57 35 -154 69 -229 82
-40 7 -81 17 -90 23 -15 9 -14 12 7 32 16 15 20 25 13 36 -13 22 -11 29 10 29
24 0 36 -16 19 -23 -9 -4 -8 -6 3 -6 8 -1 20 4 26 10 17 17 172 14 215 -5 41
-18 78 -21 78 -7 0 23 -14 41 -32 41 -14 0 -18 5 -14 18 5 14 -1 22 -21 31
-62 28 -175 43 -242 32z m-125 -368 c-11 -11 -19 6 -11 24 8 17 8 17 12 0 3
-10 2 -21 -1 -24z"/>
<path d="M2447 5778 c-31 -69 -52 -166 -42 -199 4 -10 10 -17 15 -14 5 3 11 1
15 -5 9 -15 25 -2 25 20 0 11 20 58 45 106 51 99 49 124 -9 124 -28 0 -36 -5
-49 -32z"/>
<path d="M5246 5588 c-14 -21 -14 -31 0 -98 17 -82 40 -134 54 -125 14 8 11
140 -3 194 -14 52 -30 61 -51 29z"/>
<path d="M3265 5530 c-4 -6 7 -10 24 -10 17 0 31 5 31 10 0 6 -11 10 -24 10
-14 0 -28 -4 -31 -10z"/>
<path d="M261 5504 c0 -11 3 -14 6 -6 3 7 2 16 -1 19 -3 4 -6 -2 -5 -13z"/>
<path d="M60 5356 c0 -15 16 -29 38 -32 8 -2 12 6 10 19 -4 26 -48 38 -48 13z"/>
<path d="M2751 5354 c0 -11 3 -14 6 -6 3 7 2 16 -1 19 -3 4 -6 -2 -5 -13z"/>
<path d="M440 5321 c-24 -19 -24 -20 -6 -40 27 -30 33 -26 33 19 0 22 0 40 -1
40 0 0 -12 -9 -26 -19z"/>
<path d="M1944 5306 c-6 -16 12 -56 25 -56 5 0 16 -18 25 -40 21 -52 29 -51
21 3 -10 65 -14 74 -41 91 -21 14 -25 15 -30 2z"/>
<path d="M70 5300 c19 -13 30 -13 30 0 0 6 -10 10 -22 10 -19 0 -20 -2 -8 -10z"/>
<path d="M2759 5275 c-10 -17 -11 -115 -1 -115 5 0 11 8 14 18 5 25 -6 109
-13 97z"/>
<path d="M392 5140 c0 -14 2 -19 5 -12 2 6 2 18 0 25 -3 6 -5 1 -5 -13z"/>
<path d="M39 5103 c-4 -54 -1 -56 18 -11 9 20 9 30 -2 44 -11 16 -13 12 -16
-33z"/>
<path d="M2766 5141 c-4 -7 -5 -15 -2 -18 9 -9 19 4 14 18 -4 11 -6 11 -12 0z"/>
<path d="M2021 5124 c0 -11 3 -14 6 -6 3 7 2 16 -1 19 -3 4 -6 -2 -5 -13z"/>
<path d="M3535 5116 c-11 -6 -42 -26 -69 -44 -27 -17 -65 -37 -85 -43 -46 -15
-121 -58 -121 -70 0 -5 -6 -9 -13 -9 -16 0 -57 -53 -62 -81 -2 -10 -6 -23 -9
-27 -7 -12 15 -95 28 -107 6 -5 17 -22 25 -37 8 -16 20 -28 27 -28 18 0 29
-47 16 -63 -6 -7 -7 -19 -3 -26 10 -16 20 -2 23 31 1 13 12 32 25 41 22 17 24
17 100 -55 86 -81 121 -110 109 -90 -4 8 -1 12 9 12 12 0 15 5 11 16 -3 9 -6
18 -6 20 0 2 -6 4 -14 4 -17 0 -28 53 -17 82 8 21 10 21 16 5 7 -16 9 -17 25
-2 13 12 20 13 25 5 5 -8 13 -6 26 5 17 16 20 16 53 -4 29 -18 38 -20 55 -10
15 10 25 10 46 1 14 -7 45 -12 68 -12 23 0 59 -5 80 -11 40 -11 81 -4 71 12
-3 5 -9 7 -14 4 -8 -5 -42 6 -115 35 -40 16 -101 29 -168 35 -51 6 -65 10 -57
20 7 8 39 11 107 8 185 -7 387 -20 451 -29 23 -3 42 -2 42 3 0 5 16 26 35 48
19 23 29 42 23 44 -6 2 -17 -3 -23 -12 -10 -13 -14 -5 -25 49 -8 36 -17 67
-22 70 -15 9 -8 24 11 24 10 0 21 6 24 14 15 39 -48 34 -109 -9 -41 -30 -57
-35 -99 -34 -27 1 -55 0 -61 -2 -7 -2 -30 17 -53 42 -54 62 -108 89 -174 89
-62 0 -87 15 -102 61 -10 30 -16 34 -51 36 -21 1 -48 -4 -59 -11z m71 -51 c-3
-9 1 -18 9 -21 8 -4 15 -14 15 -24 0 -11 4 -21 9 -24 15 -10 -11 -67 -28 -61
-7 3 -19 0 -27 -5 -7 -6 -18 -10 -26 -9 -20 5 -119 -32 -113 -41 6 -9 -21 -40
-36 -40 -14 0 -11 12 10 34 26 28 37 68 18 60 -11 -4 -13 1 -10 20 3 14 9 26
14 26 5 0 9 6 9 13 1 24 93 86 129 87 26 0 32 -3 27 -15z m-112 -180 c-4 -8
-11 -15 -16 -15 -6 0 -5 6 2 15 7 8 14 15 16 15 2 0 1 -7 -2 -15z m103 0 c0
-8 -4 -12 -9 -9 -4 3 -8 9 -8 15 0 5 4 9 8 9 5 0 9 -7 9 -15z m-107 -60 c-7
-9 -15 -13 -18 -10 -3 2 1 11 8 20 7 9 15 13 18 10 3 -2 -1 -11 -8 -20z m67
-46 c-8 -11 -13 -29 -10 -39 5 -17 3 -18 -21 -7 -24 11 -24 13 -7 21 11 4 21
17 24 27 3 11 10 19 17 19 7 0 6 -7 -3 -21z"/>
<path d="M2762 5083 c-12 -18 -21 -51 -24 -90 -4 -62 -4 -63 15 -42 11 11 19
33 19 47 0 15 3 31 6 37 7 12 14 75 8 75 -3 0 -13 -12 -24 -27z"/>
<path d="M1570 5044 c-13 -33 -13 -34 4 -34 12 0 25 28 26 53 0 18 -21 5 -30
-19z"/>
<path d="M21 5026 c-15 -17 3 -66 23 -66 25 0 30 40 8 60 -17 16 -22 17 -31 6z"/>
<path d="M4430 4997 c0 -7 14 -32 30 -54 23 -31 32 -55 35 -96 2 -29 7 -66 10
-80 5 -17 3 -27 -4 -27 -7 0 -9 -9 -5 -25 6 -24 -10 -37 -18 -14 -3 8 -10 8
-25 -2 -19 -11 -25 -11 -44 6 l-22 20 17 -33 c10 -19 15 -36 13 -38 -2 -3 -42
-7 -88 -10 -46 -3 -86 -8 -88 -10 -7 -7 4 -13 30 -17 33 -5 55 -51 40 -84 -6
-13 -11 -28 -11 -33 0 -15 89 17 126 45 36 28 113 48 100 27 -4 -7 -1 -12 9
-12 8 0 18 -7 21 -15 4 -8 14 -15 23 -15 21 1 122 134 131 174 12 55 -23 106
-125 183 -33 25 -68 57 -77 71 -26 39 -78 65 -78 39z m120 -187 c0 -5 -2 -10
-4 -10 -3 0 -8 5 -11 10 -3 6 -1 10 4 10 6 0 11 -4 11 -10z"/>
<path d="M2756 4935 c-3 -8 0 -15 5 -15 7 0 4 -11 -5 -25 -15 -23 -15 -26 -1
-31 8 -3 12 -10 9 -15 -3 -6 0 -16 6 -24 7 -8 9 -26 6 -39 -6 -25 22 -185 48
-270 8 -27 13 -53 10 -57 -2 -4 0 -10 5 -14 6 -3 13 -26 17 -51 3 -25 17 -68
30 -95 13 -27 24 -56 24 -64 0 -8 6 -15 14 -15 7 0 16 -8 20 -17 3 -10 15 -31
26 -48 11 -16 24 -39 29 -50 5 -12 25 -37 45 -57 20 -20 36 -43 36 -52 0 -9 8
-16 21 -16 11 0 18 -4 14 -9 -6 -10 53 -71 69 -71 5 0 32 -25 61 -55 29 -30
58 -55 63 -55 6 0 13 -9 17 -19 3 -10 17 -22 30 -25 14 -4 25 -11 25 -16 0 -5
15 -17 33 -26 17 -9 39 -25 47 -34 8 -9 36 -20 62 -24 34 -5 46 -11 42 -21 -4
-10 7 -14 48 -14 29 0 67 -5 83 -12 17 -7 36 -11 43 -10 15 2 44 -24 35 -33
-4 -3 3 -6 15 -6 12 0 22 5 22 10 0 6 7 10 15 10 8 0 15 -7 15 -15 0 -13 4
-14 21 -4 15 8 24 8 28 0 4 -6 34 -9 69 -8 50 2 61 -1 57 -12 -5 -12 -3 -12
12 0 10 8 14 9 10 2 -5 -7 3 -18 20 -28 15 -8 21 -14 13 -13 -8 2 -16 -1 -17
-5 -3 -11 -30 -37 -38 -37 -4 0 -13 -7 -21 -15 -14 -13 -13 -15 6 -15 47 0
166 25 178 37 7 7 27 13 43 13 16 0 29 5 29 10 0 6 11 10 25 10 14 0 25 4 25
8 0 5 18 23 41 41 27 23 45 30 57 25 9 -4 20 -7 23 -6 3 1 4 -10 1 -23 -2 -14
-8 -22 -13 -19 -5 3 -9 -3 -9 -12 0 -42 232 247 277 346 59 127 59 127 -4 70
-72 -65 -97 -77 -118 -60 -20 16 -19 34 1 26 9 -4 24 4 37 19 12 14 43 48 70
77 26 29 47 56 47 61 0 4 4 6 9 3 4 -3 17 10 27 29 10 19 26 38 36 41 9 3 25
23 34 45 10 21 21 39 26 39 4 0 8 5 8 11 0 6 9 24 20 39 l21 29 -21 11 c-18
10 -20 8 -20 -21 0 -25 -3 -29 -13 -21 -9 8 -20 7 -39 -2 l-27 -14 19 36 c10
21 22 49 26 65 5 22 3 26 -10 21 -9 -3 -16 -10 -16 -14 0 -5 -7 -16 -17 -25
-10 -10 -12 -19 -6 -23 5 -4 0 -21 -14 -41 -13 -19 -23 -29 -23 -23 0 6 -7 9
-15 6 -22 -9 -19 6 11 49 25 37 25 38 6 62 -24 31 -40 17 -40 -35 0 -51 -1
-52 -16 -38 -7 7 -11 20 -8 28 3 8 -6 -1 -20 -21 -14 -20 -30 -49 -36 -65 -6
-17 -11 -22 -11 -11 -1 19 -16 23 -26 6 -4 -6 -14 4 -23 22 -22 44 -45 51 -36
12 4 -15 10 -32 14 -38 4 -5 10 -18 13 -27 9 -27 -12 -22 -22 5 -8 20 -10 21
-16 3 -5 -11 -3 -22 6 -28 10 -7 5 -8 -18 -4 -31 5 -32 5 -15 -13 9 -9 23 -16
30 -13 14 5 15 -7 3 -27 -8 -12 -13 -11 -30 10 -11 13 -21 22 -22 19 -5 -24
-4 -48 2 -44 4 2 10 0 13 -5 9 -14 -25 -23 -40 -10 -20 16 -17 -2 5 -31 16
-21 21 -22 35 -11 14 12 16 12 10 -2 -6 -18 -34 -31 -34 -17 0 6 -4 10 -10 10
-5 0 -9 -10 -7 -22 1 -17 -3 -23 -18 -23 -16 0 -19 -6 -17 -27 5 -40 -18 -46
-45 -12 -17 22 -23 25 -23 12 0 -10 9 -22 20 -28 24 -13 28 -65 5 -74 -21 -8
-45 3 -45 21 0 10 -6 13 -16 9 -10 -4 -25 1 -35 10 -18 16 -19 16 -19 -9 0
-15 5 -27 10 -27 6 0 10 -9 10 -19 0 -21 -19 -40 -21 -22 -1 6 -3 16 -4 21 -1
6 -3 15 -4 20 -2 22 -27 8 -38 -21 -10 -26 -16 -30 -37 -25 -20 5 -25 1 -30
-19 -5 -20 -13 -25 -36 -25 -28 0 -30 2 -24 26 6 24 5 25 -15 15 -12 -7 -19
-16 -16 -20 2 -5 -2 -14 -9 -21 -12 -9 -18 -5 -32 21 l-17 33 -20 -25 -20 -24
7 30 c6 29 6 29 -7 7 -7 -12 -16 -20 -20 -16 -3 4 -18 -1 -33 -10 -24 -17 -26
-17 -39 1 -8 10 -12 27 -8 38 6 20 5 20 -16 1 -23 -21 -28 -7 -9 24 21 32 -2
37 -29 5 -20 -23 -33 -29 -57 -26 -35 3 -76 42 -76 73 0 19 -1 20 -25 4 -24
-16 -25 -15 -42 11 -24 39 -40 53 -47 46 -3 -4 -6 -2 -6 3 0 6 5 15 12 22 9 9
9 12 1 12 -7 0 -14 -4 -18 -10 -3 -5 -12 -7 -21 -3 -12 5 -12 7 3 20 16 12 14
13 -19 10 -42 -5 -65 11 -45 32 10 11 8 12 -10 7 -22 -7 -43 11 -26 23 19 12
34 49 23 56 -6 4 -8 11 -5 16 4 5 1 9 -5 9 -7 0 -10 -7 -6 -15 4 -11 -2 -15
-24 -15 -16 0 -32 5 -35 10 -4 6 -15 8 -26 5 -30 -10 -23 20 9 35 l27 13 -35
10 c-64 17 -67 20 -27 30 38 11 50 27 20 27 -17 1 -17 1 0 11 9 5 17 19 17 31
0 17 -5 20 -30 16 -32 -5 -51 9 -31 22 9 5 9 11 -3 23 -9 8 -16 25 -16 37 0
19 -4 20 -35 14 -28 -5 -35 -3 -35 10 0 9 5 16 11 16 5 0 7 5 4 10 -3 6 1 10
9 10 9 0 16 5 16 10 0 6 12 8 28 5 25 -5 25 -5 5 4 -26 12 -27 15 -13 42 8 13
7 19 0 19 -6 0 -8 5 -5 10 3 6 1 10 -5 10 -7 0 -10 -7 -6 -15 3 -8 1 -15 -4
-15 -6 0 -9 -3 -8 -7 3 -19 -31 -73 -46 -73 -3 0 -2 8 1 17 5 12 2 15 -10 10
-12 -4 -14 -2 -10 10 5 12 1 14 -16 8 -32 -10 -81 3 -74 21 3 8 0 14 -6 14 -6
0 -11 -6 -11 -14 0 -7 -7 -19 -15 -26 -20 -17 -31 11 -15 40 15 28 3 41 -16
16 -16 -22 -26 -16 -30 17 -1 12 -3 24 -3 27 -1 3 -11 -13 -24 -34 -33 -59
-50 -59 -41 1 9 63 6 124 -8 140 -6 7 -8 23 -5 35 6 23 6 23 -9 3 -8 -11 -13
-30 -11 -43 3 -15 -2 -26 -13 -32 -30 -16 -39 8 -31 77 7 58 21 98 21 59 0 -9
5 -14 10 -11 11 7 13 48 3 84 -6 22 -7 22 -24 -15 -11 -20 -19 -46 -19 -56 0
-11 -4 -17 -8 -14 -10 6 -9 36 1 53 5 7 4 21 -1 30 -5 10 -7 24 -5 31 3 7 -1
10 -10 6 -8 -3 -18 -1 -22 5 -3 6 -1 11 6 11 8 0 9 3 0 13 -6 8 -8 17 -4 20 3
4 2 7 -4 7 -6 0 -13 -7 -17 -15z m69 -303 c-3 -3 -11 0 -18 7 -9 10 -8 11 6 5
10 -3 15 -9 12 -12z m1784 -529 c0 -29 -2 -33 -8 -18 -7 18 -4 55 5 55 2 0 4
-17 3 -37z m-59 -85 c0 -19 -2 -20 -10 -8 -13 19 -13 30 0 30 6 0 10 -10 10
-22z m-40 -158 c-31 -24 -41 -25 -33 -4 6 16 44 35 53 27 3 -2 -6 -13 -20 -23z
m-58 -26 c-7 -12 -11 -13 -17 -4 -4 7 -2 16 6 21 18 11 23 4 11 -17z"/>
<path d="M2824 4919 c-3 -6 -1 -16 5 -22 8 -8 11 -5 11 11 0 24 -5 28 -16 11z"/>
<path d="M2710 4870 c-13 -8 -12 -10 3 -10 9 0 17 5 17 10 0 12 -1 12 -20 0z"/>
<path d="M4324 4750 c3 -14 6 -28 6 -32 0 -5 5 -8 11 -8 12 0 2 39 -13 55 -7
7 -9 2 -4 -15z"/>
<path d="M4030 4632 c0 -13 39 -19 75 -11 36 8 34 9 -27 15 -27 3 -48 1 -48
-4z"/>
<path d="M4155 4630 c-19 -8 -19 -9 3 -9 12 -1 22 4 22 9 0 6 -1 10 -2 9 -2 0
-12 -4 -23 -9z"/>
<path d="M3570 4505 c0 -10 21 -21 60 -32 33 -9 60 -20 60 -24 0 -8 120 -49
145 -49 18 0 19 5 5 31 -9 16 -14 17 -29 7 -15 -9 -23 -9 -35 1 -9 7 -13 17
-10 22 3 5 -9 9 -25 9 -17 0 -40 9 -51 20 -11 11 -22 15 -25 10 -10 -15 -45
-12 -51 5 -8 19 -44 20 -44 0z"/>
<path d="M3540 4499 c0 -5 5 -7 10 -4 6 3 10 8 10 11 0 2 -4 4 -10 4 -5 0 -10
-5 -10 -11z"/>
<path d="M3240 4430 c0 -5 5 -10 10 -10 6 0 10 5 10 10 0 6 -4 10 -10 10 -5 0
-10 -4 -10 -10z"/>
<path d="M3907 4426 c-12 -31 -8 -36 26 -35 17 1 25 3 16 6 -9 2 -21 14 -26
25 -9 20 -10 20 -16 4z"/>
<path d="M0 4426 c0 -3 9 -15 20 -26 11 -11 20 -18 20 -15 0 3 16 -2 37 -10
51 -21 95 -5 61 22 -7 6 -33 13 -58 16 -25 2 -53 8 -62 12 -10 4 -18 4 -18 1z"/>
<path d="M4026 4423 c-16 -3 -36 -12 -45 -20 -14 -15 -12 -16 24 -10 66 11
121 25 105 26 -8 1 -24 3 -35 5 -11 2 -33 1 -49 -1z"/>
<path d="M163 4377 c4 -12 57 -19 57 -7 0 4 -14 10 -30 12 -17 3 -29 0 -27 -5z"/>
<path d="M247 4372 c16 -14 37 -19 77 -20 31 0 56 1 56 3 0 5 -65 22 -115 30
l-40 6 22 -19z"/>
<path d="M4550 4355 c0 -15 4 -24 10 -20 6 3 10 12 10 20 0 8 -4 17 -10 20 -6
4 -10 -5 -10 -20z"/>
<path d="M4760 4355 c-8 -9 -8 -15 -2 -15 12 0 26 19 19 26 -2 2 -10 -2 -17
-11z"/>
<path d="M900 4240 c0 -5 5 -10 10 -10 6 0 10 5 10 10 0 6 -4 10 -10 10 -5 0
-10 -4 -10 -10z"/>
<path d="M1000 4220 c0 -5 7 -10 15 -10 8 0 15 5 15 10 0 6 -7 10 -15 10 -8 0
-15 -4 -15 -10z"/>
<path d="M1040 4222 c0 -13 34 -33 52 -30 40 5 28 33 -14 33 -21 0 -38 -1 -38
-3z"/>
<path d="M3751 4184 c0 -11 3 -14 6 -6 3 7 2 16 -1 19 -3 4 -6 -2 -5 -13z"/>
<path d="M3775 4160 c-3 -5 -1 -10 4 -10 6 0 11 5 11 10 0 6 -2 10 -4 10 -3 0
-8 -4 -11 -10z"/>
<path d="M3820 4156 c7 -7 14 -6 21 1 9 9 7 12 -9 10 -14 -1 -18 -5 -12 -11z"/>
<path d="M3338 4153 c6 -2 18 -2 25 0 6 3 1 5 -13 5 -14 0 -19 -2 -12 -5z"/>
<path d="M2880 3997 c0 -34 77 -241 111 -299 15 -26 49 -88 74 -137 27 -53 53
-91 61 -91 10 0 12 5 7 13 -4 6 -8 17 -9 23 -1 6 -13 28 -26 50 -14 21 -28 49
-32 61 -4 13 -14 30 -22 38 -8 8 -31 59 -49 112 -40 111 -95 233 -107 233 -4
0 -8 -1 -8 -3z"/>
<path d="M2755 3805 c-27 -35 -57 -77 -65 -92 -52 -95 -219 -279 -286 -313
-16 -8 -51 -32 -78 -53 -63 -49 -94 -65 -170 -87 -34 -10 -92 -30 -131 -45
-38 -15 -117 -44 -175 -64 -58 -21 -147 -55 -197 -75 -51 -20 -117 -42 -146
-50 -53 -14 -168 -68 -236 -111 -20 -12 -85 -48 -146 -80 -60 -31 -159 -90
-220 -130 -60 -40 -139 -87 -174 -104 -44 -23 -91 -60 -155 -124 -93 -94 -118
-126 -148 -187 -9 -19 -17 -28 -18 -20 0 10 -6 6 -15 -10 -17 -29 -20 -52 -4
-30 11 15 11 16 -12 -80 -24 -99 -35 -130 -46 -130 -8 0 -12 -17 -11 -52 1
-63 -10 -136 -23 -144 -5 -3 -9 -16 -9 -29 0 -13 -12 -36 -27 -51 -16 -15 -23
-24 -17 -20 7 3 15 -5 20 -22 10 -35 12 -172 2 -172 -5 0 -8 -9 -8 -19 0 -30
-17 -34 -34 -9 -9 12 -18 19 -21 16 -3 -3 0 -12 8 -19 18 -19 31 -69 17 -69
-18 0 -33 -53 -21 -72 23 -37 7 -119 -27 -144 -15 -11 -15 -13 -1 -19 22 -8 9
-79 -20 -106 -25 -24 -25 -23 -6 -43 14 -14 14 -18 0 -45 -18 -36 -19 -61 -2
-61 7 0 12 -15 12 -39 1 -22 -4 -39 -10 -38 -6 1 -9 -18 -7 -50 3 -43 0 -53
-12 -53 -9 0 -16 -5 -16 -11 0 -6 9 -8 20 -4 11 3 20 2 20 -4 0 -21 -13 -41
-27 -41 -12 0 -13 -8 -7 -42 8 -48 8 -48 -1 -103 -8 -46 -25 -86 -35 -80 -4 2
-6 -12 -5 -31 0 -20 -3 -38 -8 -41 -5 -3 -4 -8 2 -12 13 -8 14 -42 6 -151 -9
-117 -10 -120 -26 -131 -11 -7 -10 -9 5 -9 15 0 17 -3 9 -11 -6 -6 -9 -18 -6
-25 3 -8 0 -21 -7 -29 -16 -19 -40 -2 -40 26 0 11 -4 19 -10 19 -5 0 -10 -18
-10 -40 l0 -40 1740 0 c957 0 1740 3 1740 6 0 4 -4 23 -10 43 -26 99 -60 263
-65 321 -4 36 -19 106 -35 155 -36 113 -90 309 -134 490 -19 77 -44 166 -55
197 -28 78 -74 251 -102 383 -13 66 -41 154 -69 220 -56 132 -126 349 -146
452 -8 41 -14 114 -14 161 0 48 -4 114 -10 147 -5 33 -12 80 -15 104 -3 23 -8
48 -12 54 -4 6 -8 104 -9 217 -2 114 -7 243 -13 286 -10 82 -9 163 3 274 4 36
8 131 9 213 1 81 2 147 2 147 0 0 -22 -29 -50 -65z"/>
<path d="M3066 3711 c-3 -5 1 -14 9 -21 12 -10 15 -10 15 3 0 19 -16 31 -24
18z"/>
<path d="M3640 3596 c0 -2 7 -6 15 -10 8 -3 15 -1 15 4 0 6 -7 10 -15 10 -8 0
-15 -2 -15 -4z"/>
<path d="M2941 3467 c-29 -14 -36 -46 -33 -137 6 -207 3 -276 -17 -321 -15
-33 -21 -71 -23 -142 -1 -53 1 -100 5 -104 13 -13 27 19 28 67 1 25 3 56 5 70
1 14 4 41 6 60 4 51 35 77 71 58 22 -11 22 2 2 97 -18 84 -18 88 -3 79 12 -7
5 8 -16 35 -6 7 -11 19 -11 25 -2 37 -18 95 -26 90 -5 -3 -9 6 -9 20 0 14 8
30 18 35 9 6 11 11 5 11 -21 0 -15 37 10 53 27 19 21 21 -12 4z"/>
<path d="M3140 3450 c0 -5 5 -10 11 -10 5 0 7 5 4 10 -3 6 -8 10 -11 10 -2 0
-4 -4 -4 -10z"/>
<path d="M635 3330 c-3 -5 -1 -10 4 -10 6 0 11 5 11 10 0 6 -2 10 -4 10 -3 0
-8 -4 -11 -10z"/>
<path d="M4612 3175 c0 -16 2 -22 5 -12 2 9 2 23 0 30 -3 6 -5 -1 -5 -18z"/>
<path d="M891 2894 c0 -11 3 -14 6 -6 3 7 2 16 -1 19 -3 4 -6 -2 -5 -13z"/>
<path d="M3540 2889 c0 -5 5 -7 10 -4 6 3 10 8 10 11 0 2 -4 4 -10 4 -5 0 -10
-5 -10 -11z"/>
<path d="M3566 2815 c16 -25 57 -34 68 -16 4 5 -3 7 -15 4 -13 -4 -27 2 -40
16 -27 28 -33 27 -13 -4z"/>
<path d="M3630 2730 c0 -6 7 -10 15 -10 8 0 15 2 15 4 0 2 -7 6 -15 10 -8 3
-15 1 -15 -4z"/>
<path d="M3833 2650 c-13 -16 -31 -26 -45 -26 -13 1 -22 -4 -20 -11 1 -7 -5
-13 -13 -13 -8 0 -15 5 -15 12 0 6 -2 9 -5 6 -3 -3 -3 -12 0 -21 6 -13 12 -13
51 4 24 11 49 17 54 14 5 -3 12 5 16 19 10 39 1 45 -23 16z"/>
<path d="M3927 2666 c-3 -8 0 -17 7 -19 10 -4 12 1 9 14 -6 23 -9 24 -16 5z"/>
<path d="M3811 2601 c-8 -6 -9 -11 -3 -15 6 -3 14 -1 17 5 9 14 2 20 -14 10z"/>
<path d="M3760 2554 c0 -16 29 -51 30 -36 0 7 4 11 9 8 4 -3 16 0 25 7 14 11
13 12 -9 13 -14 1 -25 -3 -25 -10 0 -6 -7 -2 -15 8 -8 11 -15 15 -15 10z"/>
<path d="M344 2208 c-4 -7 -14 -23 -22 -35 -13 -20 -12 -23 2 -23 9 0 15 3 14
8 -1 4 4 18 11 30 13 25 9 43 -5 20z"/>
<path d="M286 2111 c-4 -5 3 -7 14 -4 23 6 26 13 6 13 -8 0 -17 -4 -20 -9z"/>
<path d="M276 2001 c-4 -7 -5 -15 -2 -18 9 -9 19 4 14 18 -4 11 -6 11 -12 0z"/>
<path d="M231 1938 c-13 -38 -6 -52 8 -14 6 14 17 26 26 26 8 0 15 5 15 10 0
6 -9 10 -19 10 -12 0 -23 -11 -30 -32z"/>
<path d="M0 234 c0 -8 5 -12 10 -9 6 3 10 10 10 16 0 5 -4 9 -10 9 -5 0 -10
-7 -10 -16z"/>
</g>
</svg>
